<?xml version="1.0" encoding="iso-8859-1"?>
<!-- Generator: Adobe Illustrator 18.1.1, SVG Export Plug-In . SVG Version: 6.00 Build 0)  -->
<svg xmlns="http://www.w3.org/2000/svg" xmlns:xlink="http://www.w3.org/1999/xlink" version="1.1" id="Capa_1" x="0px" y="0px" viewBox="0 0 54.108 54.108" style="enable-background:new 0 0 54.108 54.108;" xml:space="preserve" width="512px" height="512px">
<g>
	<g>
		<path d="M47.152,14.474L30,16.269V7.004l-6.472-4.45L17,9.466v8.217l-6.151,1.025l5.298,31.789l26.77,1.057    l4.964-9.217l3.066-8.485l3.161-9.309L47.152,14.474z M17.853,48.563l-4.702-28.211L19,19.377V10.26l4.806-5.088L28,8.056V18.49    l18.182-1.903l5.71,8.266l-2.832,8.339l-2.976,8.264l-4.335,8.052L17.853,48.563z" fill="#91DC5A"/>
		<polygon points="2.562,18.53 0,21.306 0,48.979 2.87,51.53 13.174,51.53 7.852,18.53   " fill="#91DC5A"/>
	</g>
</g>
<g>
</g>
<g>
</g>
<g>
</g>
<g>
</g>
<g>
</g>
<g>
</g>
<g>
</g>
<g>
</g>
<g>
</g>
<g>
</g>
<g>
</g>
<g>
</g>
<g>
</g>
<g>
</g>
<g>
</g>
</svg>
